<svg xmlns="http://www.w3.org/2000/svg" width="75" height="75">
  <path d="M74.116005 52.5936725l-7.7233251 7.676799c-.58933.58933-1.2872208.883995-2.0936725.883995-.8064516 0-1.5043424-.294665-2.0936724-.883995L37.5 35.5651365l-24.705335 24.705335c-.58933.58933-1.2872208.883995-2.0936724.883995-.80645166 0-1.50434248-.294665-2.0936725-.883995l-7.72332506-7.676799C.294665 52.0043424 0 51.2986973 0 50.476737c0-.8219603.29466501-1.5276055.88399504-2.1169355L35.4063275 13.883995C35.9956576 13.294665 36.6935484 13 37.5 13c.8064516 0 1.5043424.294665 2.0936725.883995L74.116005 48.3598015c.58933.58933.883995 1.2949752.883995 2.1169355 0 .8219603-.294665 1.5276054-.883995 2.1169355z" />
</svg>
